HIERARCHY
ROOT walk
{
	OFFSET 0.000000 0.000000 0.000000 
	CHANNELS 6 Xposition Yposition Zposition Xrotation Yrotation Zrotation
	JOINT Spine_01
	{
		OFFSET -1.880225 130.429459 -44.816216 
		CHANNELS 3 Xrotation Yrotation Zrotation
		JOINT Spine_02
		{
			OFFSET -0.452312 -3.511009 28.147495 
			CHANNELS 3 Xrotation Yrotation Zrotation
			JOINT Spine_03
			{
				OFFSET 0.424650 -1.235359 35.523460 
				CHANNELS 3 Xrotation Yrotation Zrotation
				JOINT Spine_04
				{
					OFFSET 1.909412 3.269379 39.112823 
					CHANNELS 3 Xrotation Yrotation Zrotation
					JOINT Neck_Base
					{
						OFFSET 2.135004 3.565216 29.362640 
						CHANNELS 3 Xrotation Yrotation Zrotation
						JOINT Neck_01
						{
							OFFSET 0.521858 17.357986 10.347549 
							CHANNELS 3 Xrotation Yrotation Zrotation
							JOINT Neck_02
							{
								OFFSET 0.058988 13.361023 16.739761 
								CHANNELS 3 Xrotation Yrotation Zrotation
								JOINT Head
								{
									OFFSET -0.539492 13.043594 17.666031 
									CHANNELS 3 Xrotation Yrotation Zrotation
									JOINT L_Ear
									{
										OFFSET 7.467496 15.735992 10.925293 
										CHANNELS 3 Xrotation Yrotation Zrotation
										End Site
										{
											OFFSET 5.138485 7.968933 -13.963257 
										}
									}
									JOINT R_Ear
									{
										OFFSET -8.374757 15.272873 10.924850 
										CHANNELS 3 Xrotation Yrotation Zrotation
										End Site
										{
											OFFSET 6.251859 -9.054993 12.798508 
										}
									}
									JOINT Jaw
									{
										OFFSET 0.150168 -5.139664 8.004303 
										CHANNELS 3 Xrotation Yrotation Zrotation
										End Site
										{
											OFFSET -0.493383 16.870499 -0.153122 
										}
									}
								}
							}
						}
					}
					JOINT R_Scapula
					{
						OFFSET -6.013766 17.603058 8.137573 
						CHANNELS 3 Xrotation Yrotation Zrotation
						JOINT R_Shoulder
						{
							OFFSET -2.056903 -31.319359 27.875526 
							CHANNELS 3 Xrotation Yrotation Zrotation
							JOINT R_Front_UpperLeg
							{
								OFFSET -4.375710 -32.984421 1.258026 
								CHANNELS 3 Xrotation Yrotation Zrotation
								JOINT R_Front_LowerLeg
								{
									OFFSET 1.234673 -36.968639 14.833778 
									CHANNELS 3 Xrotation Yrotation Zrotation
									JOINT R_Front_Ankle
									{
										OFFSET 0.949254 -28.422693 11.404633 
										CHANNELS 3 Xrotation Yrotation Zrotation
										JOINT R_Front_Hoof
										{
											OFFSET 0.000934 -9.320330 3.769203 
											CHANNELS 3 Xrotation Yrotation Zrotation
											End Site
											{
												OFFSET 0.000196 -0.000001 -10.053627 
											}
										}
									}
								}
							}
						}
					}
					JOINT L_Scapula
					{
						OFFSET 7.463758 17.466232 7.174225 
						CHANNELS 3 Xrotation Yrotation Zrotation
						JOINT L_Shoulder
						{
							OFFSET 5.060481 -37.406906 18.364853 
							CHANNELS 3 Xrotation Yrotation Zrotation
							JOINT L_Front_UpperLeg
							{
								OFFSET 1.156953 -24.598343 -22.411518 
								CHANNELS 3 Xrotation Yrotation Zrotation
								JOINT L_Front_LowerLeg
								{
									OFFSET -1.945167 -38.050449 -11.687790 
									CHANNELS 3 Xrotation Yrotation Zrotation
									JOINT L_Front_Ankle
									{
										OFFSET -1.495424 -29.253286 -8.989708 
										CHANNELS 3 Xrotation Yrotation Zrotation
										JOINT L_Front_Hoof
										{
											OFFSET 0.005647 -9.172993 -4.114658 
											CHANNELS 3 Xrotation Yrotation Zrotation
											End Site
											{
												OFFSET 0.011443 -0.110414 10.052956 
											}
										}
									}
								}
							}
						}
					}
				}
			}
		}
		JOINT L_Hip
		{
			OFFSET 14.680421 -7.742195 -12.373001 
			CHANNELS 3 Xrotation Yrotation Zrotation
			JOINT L_Back_UpperLeg
			{
				OFFSET -0.975421 -35.481834 -0.328365 
				CHANNELS 3 Xrotation Yrotation Zrotation
				JOINT L_Back_LowerLeg
				{
					OFFSET 2.003469 -20.721161 -39.800381 
					CHANNELS 3 Xrotation Yrotation Zrotation
					JOINT L_Back_Ankle
					{
						OFFSET -3.928178 -35.965137 -0.724129 
						CHANNELS 3 Xrotation Yrotation Zrotation
						JOINT L_Back_Hoof
						{
							OFFSET -1.046577 -11.339052 -2.575890 
							CHANNELS 3 Xrotation Yrotation Zrotation
							End Site
							{
								OFFSET -1.803778 -9.311901 6.807320 
							}
						}
					}
				}
			}
		}
		JOINT R_Hip
		{
			OFFSET -15.083144 -6.923843 -12.373531 
			CHANNELS 3 Xrotation Yrotation Zrotation
			JOINT R_Back_UpperLeg
			{
				OFFSET -0.930010 -33.822502 10.733158 
				CHANNELS 3 Xrotation Yrotation Zrotation
				JOINT R_Back_LowerLeg
				{
					OFFSET 6.447086 -37.922318 -23.190071 
					CHANNELS 3 Xrotation Yrotation Zrotation
					JOINT R_Back_Ankle
					{
						OFFSET 0.640329 -32.862473 15.136051 
						CHANNELS 3 Xrotation Yrotation Zrotation
						JOINT R_Back_Hoof
						{
							OFFSET -0.614949 -10.078912 5.860119 
							CHANNELS 3 Xrotation Yrotation Zrotation
							End Site
							{
								OFFSET 1.220568 0.000120 -11.610939 
							}
						}
					}
				}
			}
		}
		JOINT Tail_01
		{
			OFFSET 0.280393 10.183884 -23.500603 
			CHANNELS 3 Xrotation Yrotation Zrotation
			JOINT Tail_02
			{
				OFFSET 3.564261 -14.968864 -15.850166 
				CHANNELS 3 Xrotation Yrotation Zrotation
				JOINT Tail_03
				{
					OFFSET 1.392723 -23.077301 -3.274025 
					CHANNELS 3 Xrotation Yrotation Zrotation
					JOINT Tail_04
					{
						OFFSET -0.257842 -23.115273 2.243027 
						CHANNELS 3 Xrotation Yrotation Zrotation
						JOINT Tail_05
						{
							OFFSET -1.486558 -22.998890 3.854836 
							CHANNELS 3 Xrotation Yrotation Zrotation
							End Site
							{
								OFFSET 4.085572 -4.059879 -22.646049 
							}
						}
					}
				}
			}
		}
	}
}
MOTION
Frames: 4
Frame Time: 0.033333
0.000000 0.000000 0.000000 0.000006 -0.000000 -0.000000 0.000015 0.000002 -0.000000 -0.000041 -0.000001 -0.000012 0.000035 -0.000000 0.000024 -0.000026 0.000000 0.000003 0.000003 0.000001 -0.000015 -0.000017 -0.000001 -0.000002 0.000037 -0.000001 -0.000003 0.000008 -0.000057 -0.000015 -0.000023 0.000051 0.000026 -0.000015 0.000059 0.000002 -0.000025 0.000060 0.000010 0.000013 -0.000002 -0.000011 0.000008 -0.000002 -0.000003 -0.000012 -0.000002 -0.000007 0.000029 0.000001 -0.000000 -0.000079 -0.000002 0.000000 0.000066 0.000016 -0.000009 0.000014 0.000001 -0.000019 -0.000008 -0.000006 0.000003 -0.000007 -0.000005 0.000004 0.000019 0.000055 0.000019 -0.000037 0.000000 -0.000003 0.000033 0.000003 0.000003 -0.000016 -0.000003 -0.000004 -0.000014 0.000001 -0.000002 0.000027 -0.000006 0.000005 -0.000045 0.000003 -0.000001 0.000028 -0.000006 -0.000009 -0.000033 -0.000002 0.000003 0.000033 -0.000002 0.000002 -0.000026 -0.000002 0.000007 0.000029 0.000002 0.000005 -0.000011 0.000001 0.000004 -0.000059 0.000002 -0.000012 -0.000022 -0.000000 0.000002 -0.000004 0.000001 0.000004 0.000030 -0.000003 -0.000001 -0.000004 -0.000000 0.000000 
0.000000 0.000000 0.000000 0.000006 -0.000000 -0.000000 -0.167001 -0.673940 -0.115888 1.493598 0.505212 -0.045631 0.209196 0.246645 0.051531 -0.878568 -0.140498 0.025834 -1.465449 0.233102 -0.002908 -0.805858 0.025807 0.031355 -0.203328 -0.099389 -0.019132 0.772335 -0.128136 0.023919 3.227524 -0.570423 -0.992481 -0.663120 -0.126651 -0.188272 -0.000023 0.000060 0.000010 -5.032504 0.925645 -0.061285 11.759060 -1.680078 -0.755744 -4.173509 1.118676 1.434896 0.001290 0.000123 -0.000059 -3.320278 -0.322408 -0.326856 0.089593 0.000026 -0.000007 1.246558 0.185863 -0.215826 -1.177518 -0.123675 0.072855 2.591471 -0.073250 0.577951 0.000023 0.000055 0.000020 -1.626689 0.090340 -0.365318 -1.691442 -0.001616 0.001229 -10.901695 0.297907 0.028224 8.934555 -0.351386 0.335454 -5.202678 0.604689 -0.536863 1.583309 1.008727 -1.800947 -2.294914 0.271849 -0.237529 3.475689 -0.095493 0.002965 -2.192864 0.922256 -0.108427 2.602108 0.227254 0.360344 -1.261684 -0.359649 0.113103 -2.459768 0.005285 -0.258498 0.042329 0.075820 -0.024551 0.099203 -0.351509 0.709215 0.331990 -0.000386 0.445524 0.271290 0.027769 0.282596 -0.000004 0.000002 0.000001 
0.000000 0.000000 0.000000 0.000006 -0.000000 -0.000000 -0.582294 -1.315667 -0.226237 2.998105 0.954399 -0.106677 0.562602 0.434905 0.081871 -1.633403 -0.297100 0.046149 -3.018585 0.449710 0.021143 -1.490895 0.068413 0.010008 -0.231071 -0.139347 -0.065178 1.632074 -0.200685 0.029958 5.872868 -1.032716 -1.748177 -2.289202 -0.438894 -0.667074 -0.000023 0.000060 0.000010 -7.549734 1.464429 -0.150042 21.319736 -3.137916 -1.107613 -10.100508 2.415061 2.895362 -0.000078 0.000080 -0.000031 -5.412847 -0.617216 -0.768816 0.325619 0.000052 -0.000002 0.622335 0.221065 -0.403854 1.214444 0.125930 -0.077767 -1.506897 0.000518 1.508773 9.865699 -0.513254 0.096685 -6.408765 0.347402 -0.931973 2.836473 -0.001130 0.001305 -20.337896 0.547488 0.097825 13.606461 -0.173223 1.272850 -10.165297 1.225178 -0.996335 4.240158 2.068902 -3.160958 -5.130511 0.620712 -0.515824 7.272230 -0.199378 0.012808 -4.190985 1.880758 -0.314270 4.436887 0.397292 0.608156 -1.875252 -0.686661 0.398782 -5.070981 0.023031 -0.532404 -0.123984 0.362282 -0.147512 0.502476 -0.605717 1.317985 1.394217 0.025149 0.912352 1.147558 0.042344 0.602361 -0.000004 0.000003 0.000000 
0.000000 0.000000 0.000000 0.000006 -0.000000 -0.000000 -1.174000 -1.907446 -0.328014 4.346496 1.335364 -0.166489 0.955637 0.564226 0.102735 -2.242660 -0.460622 0.061051 -4.288182 0.641959 0.054149 -1.987034 0.134195 -0.057224 -0.176212 -0.108921 -0.128060 2.356528 -0.240745 0.028945 6.968661 -1.225205 -2.048570 -4.334299 -0.833943 -1.303917 -0.000023 0.000060 0.000010 -8.831971 1.799161 -0.267039 28.477341 -4.255890 -1.209550 -14.535023 3.646940 4.141222 -0.000074 0.000071 -0.000028 -7.802102 -0.853671 -1.211686 0.659409 0.000063 -0.000056 -1.282617 0.054674 -0.324539 4.131479 0.421388 -0.275286 -5.410116 0.253456 1.940925 20.134510 -1.021567 0.289102 -8.339301 0.532559 -1.246372 13.336215 0.000015 0.001329 -25.193705 0.670562 0.149381 10.058518 0.525294 2.530532 -14.212060 1.759431 -1.330443 8.822998 2.772579 -3.588932 -8.289448 1.025249 -0.805281 11.270832 -0.307832 0.030587 -6.037382 2.837200 -0.632864 5.827292 0.531429 0.792318 -2.150969 -0.991898 0.818722 -7.752347 0.054221 -0.812537 -0.685038 0.896716 -0.395905 1.616162 -0.755803 1.944897 2.945163 0.077313 1.413509 2.393324 0.060997 0.988156 -0.000005 0.000002 0.000001 
